<?xml version="1.0" encoding="utf-8"?>
<!-- Generator: Adobe Illustrator 22.0.1, SVG Export Plug-In . SVG Version: 6.00 Build 0)  -->
<svg version="1.1" xmlns="http://www.w3.org/2000/svg" xmlns:xlink="http://www.w3.org/1999/xlink" x="0px" y="0px"
	 viewBox="0 0 142 142" style="enable-background:new 0 0 142 142;" xml:space="preserve">
<style type="text/css">
	.st0{fill:#231F20;}
	.st1{fill:none;stroke:#000000;stroke-width:12.127;stroke-miterlimit:10;}
	.st2{fill:#FFFFFF;}
	.st3{fill:#FFFFFF;stroke:#191919;stroke-width:1.62;stroke-linecap:square;stroke-miterlimit:10;}
	.st4{fill:none;stroke:#191919;stroke-width:1.62;stroke-miterlimit:10;}
	.st5{fill:#FFFFFF;stroke:#191919;stroke-width:1.62;}
	.st6{fill:#191919;stroke:#FFFFFF;stroke-width:0.324;stroke-miterlimit:10;}
	.st7{fill:#FFFFFF;stroke:#191919;stroke-width:1.79;stroke-linecap:square;stroke-miterlimit:10;}
	.st8{fill:none;stroke:#191919;stroke-width:1.79;stroke-miterlimit:10;}
	.st9{fill:#FFFFFF;stroke:#191919;stroke-width:1.79;}
	.st10{fill:#191919;stroke:#FFFFFF;stroke-width:0.358;stroke-miterlimit:10;}
	.st11{display:none;}
	.st12{display:inline;opacity:0.33;fill:#FF0000;}
</style>
<g id="Check_Mark_Icon">
</g>
<g id="_x2D_---------_1_">
</g>
<g id="Portrait_Illu">
</g>
<g id="Portrait_1_-_Frame">
	<g>
		<rect y="0" class="st2" width="142" height="142"/>
	</g>
</g>
<g id="Portrait_1_-_Illu">
	<g>
		<polyline class="st7" points="112.6,61.6 112.7,119.9 78.5,119.9 78.5,29.7 		"/>
		<line class="st8" x1="107.4" y1="43.6" x2="107.4" y2="119.9"/>
		<path class="st9" d="M112.7,61c0-23-18.7-41.7-41.7-41.7c-7.1,0-13.7,1.8-19.5,4.9C38.3,31.2,29.3,45,29.3,61
			c0,11.1,4.3,21.1,11.3,28.6v30.3h61.4V88.8C108.7,81.4,112.7,71.7,112.7,61z"/>
		<polyline class="st8" points="85.8,49.8 94.3,72.5 87.1,72.5 		"/>
		<path class="st8" d="M79.8,80.4c0,3.9,3.1,7,7,7c3.9,0,7-3.1,7-7H79.8z"/>
		<polyline class="st7" points="29.4,61.6 29.3,119.9 62.8,119.9 62.8,26.1 		"/>
		<path class="st8" d="M104.2,35.8c-17.1,0-36.9-7.5-48-13.6"/>
		<path class="st8" d="M98.8,30c-12-1.2-23.7-5.6-33.8-10.2"/>
		<line class="st8" x1="51.4" y1="24.2" x2="51.4" y2="119.9"/>
		<line class="st8" x1="57.2" y1="22.8" x2="57.2" y2="119.9"/>
		<line class="st8" x1="45.9" y1="27.7" x2="45.9" y2="119.9"/>
		<line class="st8" x1="40.5" y1="32.7" x2="40.5" y2="119.9"/>
		<line class="st8" x1="35" y1="40" x2="35" y2="119.9"/>
		<path class="st10" d="M98.7,50.5c0,1-0.8,1.8-1.8,1.8c-1,0-1.8-0.8-1.8-1.8c0-1,0.8-1.8,1.8-1.8C97.9,48.7,98.7,49.5,98.7,50.5z"
			/>
		<path class="st10" d="M81.3,50.5c0,1-0.8,1.8-1.8,1.8c-1,0-1.8-0.8-1.8-1.8c0-1,0.8-1.8,1.8-1.8C80.4,48.7,81.3,49.5,81.3,50.5z"
			/>
		<path class="st8" d="M69.7,50.6c0,4.4,3.6,8,8,8c4.4,0,8-3.6,8-8c0-4.4-3.6-8-8-8C73.3,42.6,69.7,46.1,69.7,50.6z"/>
		<path class="st8" d="M87.2,50.6c0,4.4,3.6,8,8,8c4.4,0,8-3.6,8-8c0-4.4-3.6-8-8-8C90.8,42.6,87.2,46.1,87.2,50.6z"/>
		<line class="st8" x1="69" y1="50.6" x2="62.6" y2="50.6"/>
		<line class="st8" x1="111.4" y1="50.6" x2="102.6" y2="50.6"/>
	</g>
</g>
<g id="_x2D_---------">
</g>
<g id="ANNOTATIONS">
</g>
<g id="GUIDES" class="st11">
</g>
</svg>
